<svg width="19" height="19" viewBox="0 0 19 19" fill="none" xmlns="http://www.w3.org/2000/svg">
<path id="Vector" d="M9.22383 0C8.66133 3.50898 8.18867 5.59492 6.8918 6.8918C5.59492 8.18867 3.50898 8.66133 0 9.22383C3.50898 9.78633 5.59492 10.259 6.8918 11.5598C8.18867 12.8566 8.66133 14.9426 9.22383 18.4543C9.78633 14.9426 10.259 12.8566 11.5559 11.5559C12.8566 10.259 14.9426 9.78633 18.4543 9.22383C14.9426 8.66133 12.8566 8.18867 11.5598 6.8918C10.259 5.59492 9.78633 3.50898 9.22383 0ZM15.7512 2.7043C13.9621 3.99727 12.5871 4.92695 11.3605 5.44648C11.5598 5.81367 11.7902 6.12617 12.0559 6.3918C12.3215 6.65742 12.634 6.88789 13.0051 7.09102C13.5285 5.86445 14.4582 4.48945 15.7512 2.7043ZM2.70664 2.70664C4.00117 4.49336 4.92695 5.86445 5.44648 7.08711C5.81367 6.88789 6.12617 6.65742 6.3918 6.3918C6.65742 6.12617 6.88789 5.81367 7.08711 5.44648C5.86445 4.92695 4.49336 4.00117 2.70664 2.70664ZM13.0051 11.3566C12.634 11.5598 12.3215 11.7902 12.0559 12.0559C11.7902 12.3215 11.5598 12.634 11.3566 13.0051C12.5871 13.5246 13.9621 14.4543 15.7512 15.7512C14.4543 13.9621 13.5246 12.5871 13.0051 11.3566ZM5.44648 11.3605C4.92695 12.5871 3.99727 13.9621 2.7043 15.7512C4.48945 14.4582 5.86445 13.5285 7.09102 13.0051C6.88789 12.634 6.65742 12.3215 6.3918 12.0559C6.12617 11.7902 5.81367 11.5598 5.44648 11.3605Z" fill="white"/>
</svg>
